# xmcd
#
# Track frame offsets:
#	150
#	17924
#	33980
#	47925
#	63311
#	77706
#	96546
#	109235
#	124212
#	139495
#	156452
#	174220
#	193230
#	211343
#	226645
#	241804
#
# Disc length: 3395 seconds
#
# Revision: 0
# Processed by: cddbd v1.5.2PL0 Copyright (c) Steve Scherf et al.
# Submitted via: EasyCDDAExtractor 11.9.9.666
#
DISCID=e20d4110
DTITLE=Corpo and Alma - Ao Sul do Meu Coração
DYEAR=1900
DGENRE=Other
TTITLE0=Ao Sul do meu coração
TTITLE1=Vem morena
TTITLE2=24 horas
TTITLE3=Seus olhos
TTITLE4=Jaqueline
TTITLE5=Pele macia
TTITLE6=Só sei dizer que te amo
TTITLE7=O clone dela
TTITLE8=Tattuou
TTITLE9=O frio e a saudade
TTITLE10=Onde andará você
TTITLE11=Menina moça
TTITLE12=SOS solidão
TTITLE13=Volte amor (Tornero)
TTITLE14=Não vá
TTITLE15=Fã apaixonada
EXTD=
EXTT0=
EXTT1=
EXTT2=
EXTT3=
EXTT4=
EXTT5=
EXTT6=
EXTT7=
EXTT8=
EXTT9=
EXTT10=
EXTT11=
EXTT12=
EXTT13=
EXTT14=
EXTT15=
PLAYORDER=
